PathFileType	4	(X/Y/Z)	..\data\2014015\dynamic\2014015_C5_03.trc
DataRate	CameraRate	NumFrames	NumMarkers	Units	OrigDataRate	OrigDataStartFrame	OrigNumFrames
100.000000	100.000000	4	52	mm	100.000000	61	163
Frame#	Time	L_IAS			L_IPS			R_IPS			R_IAS			L_FTC			L_FLE			L_FME			L_FAX			L_TTC			L_FAL			L_TAM			L_FCC			L_FM1			L_FM2			L_FM5			R_FTC			R_FLE			R_FME			R_FAX			R_TTC			R_FAL			R_TAM			R_FCC			R_FM1			R_FM2			R_FM5			CV7			TV10			SXS			SJN			L_SIA			L_SRS			L_SAA			L_SAE			L_HLE			L_HME			L_UOA			L_RSP			L_UHE			L_HM2			L_HM5			R_SIA			R_SRS			R_SAA			R_SAE			R_HLE			R_HME			R_UOA			R_RSP			R_UHE			R_HM2			R_HM5			
		X1	Y1	Z1	X2	Y2	Z2	X3	Y3	Z3	X4	Y4	Z4	X5	Y5	Z5	X6	Y6	Z6	X7	Y7	Z7	X8	Y8	Z8	X9	Y9	Z9	X10	Y10	Z10	X11	Y11	Z11	X12	Y12	Z12	X13	Y13	Z13	X14	Y14	Z14	X15	Y15	Z15	X16	Y16	Z16	X17	Y17	Z17	X18	Y18	Z18	X19	Y19	Z19	X20	Y20	Z20	X21	Y21	Z21	X22	Y22	Z22	X23	Y23	Z23	X24	Y24	Z24	X25	Y25	Z25	X26	Y26	Z26	X27	Y27	Z27	X28	Y28	Z28	X29	Y29	Z29	X30	Y30	Z30	X31	Y31	Z31	X32	Y32	Z32	X33	Y33	Z33	X34	Y34	Z34	X35	Y35	Z35	X36	Y36	Z36	X37	Y37	Z37	X38	Y38	Z38	X39	Y39	Z39	X40	Y40	Z40	X41	Y41	Z41	X42	Y42	Z42	X43	Y43	Z43	X44	Y44	Z44	X45	Y45	Z45	X46	Y46	Z46	X47	Y47	Z47	X48	Y48	Z48	X49	Y49	Z49	X50	Y50	Z50	X51	Y51	Z51	X52	Y52	Z52	

62	0.61	-391.9275817871095	824.3385009765627	110.1828079223633	-611.4255371093751	845.9956054687502	189.2437286376953	-611.9995727539064	849.6475219726565	284.9916076660156	-393.835662841797	811.7454223632815	372.9786376953125	-467.4610900878907	742.8021850585939	46.14233779907222	-352.0321044921876	412.6509704589845	111.067642211914	-339.235076904297	409.8536987304689	252.2696380615235	-348.6965026855469	355.2879028320313	109.5178298950195	-290.9926147460938	380.0330505371094	157.4531097412109	-300.7175903320313	60.88114166259767	147.3828277587891	-275.8525695800782	78.68083953857423	229.9026489257813	-329.9478149414063	20.30378150939942	192.5201721191407	-152.2981872558594	36.55143356323243	227.2115173339844	-142.9842529296876	49.86913299560548	173.9137115478516	-179.7529907226563	25.84366035461426	119.4021377563477	-480.4417724609377	728.8348999023439	422.4892272949219	-584.6865234375001	405.9264221191407	379.4884948730469	-546.0396728515626	366.5703735351563	254.0094757080078	-614.4771118164064	362.8316345214844	386.7194519042969	-563.7036132812501	321.6342163085938	332.6963806152344	-843.1780395507815	155.27783203125	345.3283996582031	-802.4483642578127	147.9652404785157	262.3879394531249	-888.150329589844	160.2989196777344	296.9250183105468	-794.3851318359377	31.2586898803711	248.6503448486328	-773.5766601562502	33.30347442626954	303.0474853515624	-813.509704589844	44.26045989990235	356.2102661132812	-568.0986938476564	1290.150024414063	252.7742156982422	-624.4628295898439	1094.623046875	251.0815124511718	-372.2886657714844	1017.314819335938	225.6637573242188	-439.8879394531252	1224.319091796875	236.7082214355469	-635.4605712890626	1120.966796875	183.1633758544921	-603.2536621093751	1243.196899414063	179.2998504638671	-578.3644409179689	1254.944580078125	115.8229827880859	-525.3905639648439	1248.929931640625	67.89944458007807	-575.3391723632814	981.3740844726565	14.56149768829339	-591.7810668945314	964.0168457031252	102.7672424316406	-606.2809448242189	960.7432250976565	55.61540985107416	-518.8436889648439	767.6427612304689	26.10447311401362	-585.0290527343751	773.624450683594	-18.41804313659675	-502.2736816406251	680.3091430664064	3.386173963546692	-591.9512939453126	694.3612670898439	-29.2272033691407	-616.7482910156251	1118.133178710938	353.2039184570312	-583.5197753906251	1242.609741210938	338.6263427734375	-550.7271118164064	1246.798828125	393.8549194335938	-470.7468566894533	1245.134887695313	417.1246337890626	-468.7855529785158	971.0908813476565	492.5125732421876	-525.6301269531251	957.5357666015627	410.4575500488282	-516.464538574219	947.2360839843752	466.5799255371094	-361.8652343750001	788.9405517578127	445.5655822753907	-407.1361083984377	767.5906982421876	505.6781005859376	-309.4379882812501	710.1040649414064	461.7097473144532	-398.0934448242189	698.1870727539064	508.6475524902344	
63	0.62	-376.8858032226563	826.8777465820315	109.0148696899414	-596.5094604492189	846.6761474609377	187.8849182128906	-596.2194213867189	849.1126098632815	285.166259765625	-377.6519775390626	811.7930908203127	369.4057312011719	-451.2291564941407	746.1602783203126	43.80654144287104	-337.8387451171876	414.2047424316407	109.6577224731445	-324.7143554687501	411.9643554687501	250.3825836181641	-335.7290954589844	356.6082458496094	108.0405197143555	-278.6134643554688	379.9811706542969	156.1485748291016	-298.7478332519532	60.6293182373047	147.3644714355469	-274.3058776855469	77.55416107177736	230.2970581054688	-329.9291076660157	20.83920860290528	192.1222534179688	-151.5088500976563	30.41748237609864	228.786117553711	-140.5904693603516	44.26863479614259	175.3604278564453	-178.4418182373047	22.21880149841309	119.2523956298828	-462.2442321777345	727.6253662109376	420.6708679199219	-562.9210205078126	404.608123779297	381.4641418457031	-521.5213623046876	362.7341918945313	257.3158264160156	-593.9573974609376	363.0508422851563	389.1779479980469	-542.5207519531251	319.6679687500001	336.4552001953125	-827.844909667969	163.9183502197266	345.2335205078124	-785.816345214844	152.883773803711	263.7499084472656	-871.1218261718752	171.6327056884766	295.8391418457031	-789.8391723632815	35.42929458618165	249.2893524169922	-770.1602172851565	34.32518005371094	303.4345092773437	-807.584411621094	49.588191986084	356.5208129882812	-554.6402587890626	1291.0400390625	250.8893127441406	-610.5626831054689	1095.238891601563	249.4346923828125	-357.9058837890626	1018.881103515625	224.3664093017578	-426.4320068359377	1225.632690429688	235.1937103271484	-621.4816284179689	1121.547241210938	181.4132690429687	-589.5811157226564	1243.820068359375	177.4305267333984	-564.4907226562501	1255.6337890625	113.9878997802734	-511.3046264648439	1249.692626953125	66.14895629882808	-560.0043334960939	981.9387207031252	12.95944690704339	-577.1552124023439	964.8416748046877	101.1542434692382	-591.2789306640626	961.3533325195315	53.90044403076166	-504.3828735351564	768.156677246094	25.45917892456049	-569.8440551757814	774.1973876953127	-19.62540054321297	-487.8356018066407	680.4815673828126	3.932564020156801	-577.1130981445314	694.7502441406251	-29.77666282653816	-603.0886840820314	1118.802490234375	351.5685119628906	-570.2944335937501	1243.423461914063	336.7859497070312	-537.5864257812501	1247.925170898438	392.1056213378907	-457.682586669922	1246.536499023438	415.6315917968751	-456.5599060058595	972.1717529296877	490.7239685058594	-513.2015991210939	959.1441040039065	408.3744812011719	-504.3304138183595	948.573669433594	464.6084289550782	-350.5605468750001	789.4719238281252	443.6068725585938	-396.2530822753908	768.1170043945315	503.4733886718751	-298.7019042968751	710.1963500976564	459.5530090332032	-387.6652221679689	698.6220703125001	506.1500854492188	
64	0.63	-362.1462707519532	829.556335449219	107.7205810546875	-581.7791748046876	847.5737915039065	186.5592651367187	-580.6427612304689	848.6150512695315	285.5851440429688	-361.5481262207032	811.9553222656252	365.4613037109375	-435.0236206054689	749.9241333007814	41.50358963012691	-324.6714172363282	415.5901489257814	108.3767318725586	-311.6031188964845	413.9966125488282	248.8031921386719	-323.7945861816407	357.8342285156251	106.7011795043945	-267.1350097656251	379.8817749023438	155.0188140869141	-297.1752319335938	60.61036682128908	147.3620147705078	-273.1448059082032	76.83422088623048	230.6540222167969	-329.9788818359376	21.38818550109864	191.7574768066406	-151.1085510253907	25.56722640991212	230.0739135742188	-138.7054138183594	39.94828796386719	176.5195465087891	-177.5698699951172	19.60263252258301	118.9399490356445	-443.9762268066408	726.4624023437501	418.8817443847657	-540.2781982421876	403.2416381835939	383.5529479980469	-495.8413085937502	358.9502868652344	260.7274780273438	-572.2572021484376	363.1692504882813	391.6636352539063	-520.3397216796876	317.8905944824219	340.1092529296875	-810.9660644531252	172.6368408203125	344.9230651855468	-767.8167114257814	157.9342956542969	264.8567199707031	-852.5679321289065	182.7266235351563	294.5837402343749	-782.9975585937502	40.01469802856446	250.2417755126953	-764.7344970703126	35.91357421875001	304.1513977050781	-799.6218261718752	55.8192825317383	356.9345092773437	-541.1505737304689	1292.122436523438	249.0825958251953	-596.7471923828126	1096.092041015625	247.868408203125	-343.6541748046876	1020.531555175781	223.1629333496094	-412.9818420410158	1227.074584960938	233.7499084472656	-607.5508422851564	1122.347900390625	179.7292938232421	-575.8887939453126	1244.626831054688	175.6344146728515	-550.6124267578126	1256.49853515625	112.2276000976562	-497.2241821289064	1250.628784179688	64.48069763183589	-544.5472412109376	982.6785888671877	11.29667091369622	-562.4964599609376	965.799499511719	99.45413970947261	-576.1929321289064	962.096130371094	52.07865905761713	-489.6270446777345	768.934997558594	24.75080108642573	-554.2733154296876	774.9666137695315	-21.00370979309089	-473.0088195800782	680.9047241210939	4.480610847473088	-561.7899780273439	695.3201293945314	-30.5098018646241	-589.4893798828126	1119.761962890625	350.0274658203125	-557.0312500000001	1244.490234375	335.0371704101562	-524.3809204101564	1249.295532226563	390.4317626953126	-444.5159606933595	1248.10888671875	414.1632995605469	-444.3441772460939	973.4783935546877	489.0243225097657	-500.8926086425783	961.0079345703127	406.4400939941407	-492.2644042968752	950.162048339844	462.7820434570313	-339.4972229003907	790.096374511719	441.6408996582032	-385.5359497070314	768.8393554687502	501.3539123535157	-288.3466796875001	710.2875976562501	457.2777099609376	-377.5032348632814	699.2323608398439	503.7570800781251	
65	0.64	-347.7319641113282	832.271667480469	106.2919387817383	-567.2780761718751	848.6888427734377	185.3108215332031	-565.3433227539064	848.2058105468752	286.1861267089844	-345.6054992675782	812.2517089843752	361.2530212402344	-418.9923400878907	753.9706420898439	39.29054260253902	-312.6608276367188	416.7476806640626	107.2315826416015	-300.0425415039064	415.8257141113282	247.5261383056641	-313.0382690429688	358.8936157226563	105.5175247192383	-256.6407165527344	379.6856994628907	154.0705108642578	-295.9253540039063	60.76967239379884	147.3781585693359	-272.2779235839844	76.47258758544923	230.9661712646485	-330.0154724121094	21.91641616821289	191.4415130615234	-150.9791717529297	22.01529884338379	231.0678863525391	-137.2555084228516	36.89144134521485	177.3885803222656	-177.0357818603516	17.93614006042481	118.51953125	-425.8087463378908	725.4328613281251	417.1382141113282	-516.8748779296876	401.905242919922	385.6843566894532	-469.255584716797	355.4312438964844	264.0892028808594	-549.4640502929689	363.2052307128907	394.0900573730469	-497.2640686035158	316.3813171386719	343.51171875	-792.6103515625002	181.2729644775391	344.3519592285156	-748.5004882812501	163.0830535888672	265.6368713378906	-832.6450805664065	193.3355865478516	293.1489257812499	-773.4373779296877	44.84680557250977	251.5194396972656	-756.8204956054689	38.09054946899415	305.2198791503906	-789.274841308594	62.80528259277345	357.4367675781249	-527.6411743164064	1293.370727539063	247.3697509765625	-583.0343627929689	1097.16455078125	246.3897094726562	-329.5692749023438	1022.21728515625	222.0747528076172	-399.538543701172	1228.603271484375	232.3915710449219	-593.6859130859376	1123.353515625	178.1222229003906	-562.1860961914064	1245.60205078125	173.9202728271484	-536.7333984375001	1257.514038085938	110.5517578125	-483.1524963378907	1251.706420898438	62.90880584716793	-529.0123291015626	983.5637207031252	9.592070579528746	-547.8178100585939	966.8506469726565	97.68297576904293	-561.0515136718751	962.9375610351565	50.17079925537104	-474.5635070800782	769.9541015625002	23.98561668395991	-538.3300170898439	775.8992309570315	-22.5398139953614	-457.7792358398439	681.5723876953126	4.989638805389349	-545.9685668945314	696.0460815429689	-31.43980598449714	-575.9732666015626	1120.993408203125	348.5865783691406	-543.7396850585939	1245.788818359375	333.3971557617188	-511.116180419922	1250.87841796875	388.8504638671876	-431.2521972656252	1249.809814453125	412.7338867187501	-432.1337280273439	974.973327636719	487.4299316406251	-488.7031555175783	963.0794067382815	404.6808471679688	-480.2565917968752	951.9603271484377	461.1206970214844	-328.6531372070314	790.791442871094	439.6759338378907	-374.9380798339845	769.7415161132815	499.3421020507813	-278.3425292968751	710.3677368164064	454.8876037597657	-367.5577087402345	700.0065917968751	501.5009765625001	
